<?xml version="1.0" encoding="UTF-8" standalone="no"?>
<!DOCTYPE svg PUBLIC "-//W3C//DTD SVG 1.1//EN" "http://www.w3.org/Graphics/SVG/1.1/DTD/svg11.dtd">
<svg width="100%" height="100%" viewBox="0 0 256 256" version="1.1" xmlns="http://www.w3.org/2000/svg" xmlns:xlink="http://www.w3.org/1999/xlink" xml:space="preserve" xmlns:serif="http://www.serif.com/" style="fill-rule:evenodd;clip-rule:evenodd;">
    <path d="M256,128C256,198.645 198.645,256 128,256C57.355,256 0,198.645 0,128C0,57.355 57.355,0 128,0C198.645,0 256,57.355 256,128Z" style="fill:url(#_Linear1);"/>
    <g transform="matrix(1.373333,0,0,1.373333,-44.4,-47.413333)">
        <circle cx="128" cy="128" r="74" style="fill:white;fill-opacity:0.08;stroke:white;stroke-opacity:0.15;stroke-width:4px;"/>
    </g>
    <g transform="matrix(1.19942,0,0,1.19942,-33.834783,-9.148986)">
        <path d="M78,154L108,124L128,142L176,94" style="fill:none;fill-rule:nonzero;stroke:url(#_Linear2);stroke-width:14px;stroke-linecap:round;stroke-linejoin:round;"/>
    </g>
    <g transform="matrix(1.19942,0,0,1.19942,-33.834783,-9.148986)">
        <circle cx="176" cy="94" r="10" style="fill:white;"/>
    </g>
    <g transform="matrix(1.19942,0,0,1.19942,-33.834783,-9.148986)">
        <path d="M176,68L176,52" style="fill:none;fill-rule:nonzero;stroke:white;stroke-width:6px;stroke-linecap:round;"/>
    </g>
    <g transform="matrix(1.19942,0,0,1.19942,-33.834783,-9.148986)">
        <path d="M200,94L216,94" style="fill:none;fill-rule:nonzero;stroke:white;stroke-width:6px;stroke-linecap:round;"/>
    </g>
    <g transform="matrix(1.19942,0,0,1.19942,-33.834783,-9.148986)">
        <path d="M192.5,77.5L204,66" style="fill:none;fill-rule:nonzero;stroke:white;stroke-width:6px;stroke-linecap:round;"/>
    </g>
    <g transform="matrix(2.362754,0,0,2.362754,-173.828406,-175.393623)">
        <path d="M128,84L128,172" style="fill:none;fill-rule:nonzero;stroke:white;stroke-opacity:0.9;stroke-width:8px;stroke-linecap:round;"/>
    </g>
    <g transform="matrix(2.362754,0,0,2.362754,-173.828406,-156.491594)">
        <path d="M148,102C148,91 139,84 128,84C117,84 108,91 108,102C108,113 117,120 128,120C139,120 148,127 148,138C148,149 139,156 128,156C117,156 108,149 108,138" style="fill:none;fill-rule:nonzero;stroke:white;stroke-width:8px;stroke-linecap:round;"/>
    </g>
    <defs>
        <linearGradient id="_Linear1" x1="0" y1="0" x2="1" y2="0" gradientUnits="userSpaceOnUse" gradientTransform="matrix(256,256,-256,256,0,0)"><stop offset="0" style="stop-color:rgb(218,229,70);stop-opacity:1"/><stop offset="1" style="stop-color:rgb(6,182,212);stop-opacity:1"/></linearGradient>
        <linearGradient id="_Linear2" x1="0" y1="0" x2="1" y2="0" gradientUnits="userSpaceOnUse" gradientTransform="matrix(128,-100,100,128,64,180)"><stop offset="0" style="stop-color:rgb(165,243,252);stop-opacity:1"/><stop offset="1" style="stop-color:white;stop-opacity:1"/></linearGradient>
    </defs>
</svg>
